<?xml version="1.0" standalone="no"?>
<!DOCTYPE svg PUBLIC "-//W3C//DTD SVG 20010904//EN"
 "http://www.w3.org/TR/2001/REC-SVG-20010904/DTD/svg10.dtd">
<svg version="1.0" xmlns="http://www.w3.org/2000/svg"
 width="267.000000pt" height="189.000000pt" viewBox="0 0 267.000000 189.000000"
 preserveAspectRatio="xMidYMid meet">

<g transform="translate(0.000000,189.000000) scale(0.100000,-0.100000)"
fill="#000000" stroke="none">
<path d="M747 1613 c-12 -11 -8 -108 5 -121 7 -7 31 -12 54 -12 61 0 84 -32
84 -114 l0 -61 -78 -37 c-42 -21 -88 -46 -101 -57 l-25 -19 40 -20 c21 -10 64
-27 94 -37 59 -19 78 -31 67 -41 -9 -10 -79 11 -161 49 l-69 31 -33 -39 c-59
-70 -79 -121 -79 -205 0 -59 5 -85 23 -120 31 -59 102 -132 117 -120 11 9 140
62 183 75 16 4 22 2 22 -9 0 -9 -23 -22 -62 -36 -35 -11 -79 -29 -98 -39 l-34
-19 47 -30 c27 -17 77 -43 112 -58 57 -24 68 -33 94 -78 42 -75 115 -142 200
-184 74 -36 77 -37 190 -37 104 1 122 3 174 27 74 35 162 118 197 188 26 51
33 57 92 79 89 33 184 91 166 102 -51 33 -296 106 -308 92 -4 -5 -14 -29 -24
-54 -24 -65 -83 -147 -136 -187 l-45 -35 55 7 c30 4 63 10 73 13 16 4 17 2 6
-14 -16 -26 -69 -62 -110 -73 -77 -22 -152 -4 -212 52 l-42 39 30 -6 c17 -3
38 -8 48 -11 16 -5 17 7 17 152 l0 157 -60 -7 c-50 -6 -60 -5 -60 9 0 12 12
15 60 15 l60 0 0 105 0 105 -60 0 c-48 0 -60 3 -60 16 0 13 10 15 60 12 l60
-3 0 158 c0 177 2 173 -77 137 l-43 -19 0 58 c0 71 16 88 85 93 l50 3 3 68 3
67 -294 0 c-161 0 -297 -3 -300 -7z m563 -58 l0 -35 -85 0 c-98 0 -136 -14
-164 -61 l-18 -30 -17 26 c-32 49 -73 65 -163 65 l-83 0 0 35 0 35 265 0 265
0 0 -35z m-335 -65 c60 -37 60 -34 65 -505 5 -424 5 -431 28 -473 34 -63 84
-114 144 -147 43 -23 68 -30 134 -33 136 -7 230 38 300 143 21 30 39 53 42 50
9 -9 -68 -113 -104 -140 -19 -14 -60 -38 -92 -53 -48 -22 -71 -27 -147 -27
-107 0 -169 19 -248 75 -64 46 -116 113 -149 190 -22 54 -23 66 -28 472 l-5
416 -24 26 -24 26 38 0 c21 0 52 -9 70 -20z m210 -16 l-25 -37 0 -417 c0 -458
3 -483 60 -552 43 -52 120 -88 188 -88 89 0 131 18 195 83 44 45 55 52 43 29
-23 -45 -111 -118 -163 -136 -61 -21 -166 -20 -229 1 -34 11 -67 35 -110 77
-96 96 -94 86 -94 577 l0 417 27 32 c30 37 55 48 100 49 l32 1 -24 -36z"/>
<path d="M1492 1553 l3 -68 52 -3 c64 -4 93 -33 93 -95 0 -39 0 -39 -32 -33
-18 3 -57 9 -87 13 l-56 6 57 -52 c53 -49 91 -110 134 -218 l9 -21 94 24 c52
13 124 38 160 55 l66 31 -30 24 c-16 13 -67 41 -112 61 l-83 38 0 66 c0 80 14
96 85 101 l50 3 3 68 3 67 -206 0 -206 0 3 -67z m378 3 l0 -34 -62 -4 c-52 -4
-65 -9 -86 -33 -21 -25 -25 -27 -34 -12 -14 26 -48 41 -108 47 -42 4 -56 9
-58 23 -9 45 -2 47 178 47 l170 0 0 -34z m-201 -82 c16 -20 21 -41 21 -86 0
-37 -4 -57 -10 -53 -5 3 -10 30 -10 59 0 39 -6 61 -21 80 -11 14 -16 26 -10
26 5 0 19 -12 30 -26z m70 -11 c-11 -21 -19 -58 -19 -85 0 -26 -4 -48 -10 -48
-13 0 -13 80 -1 113 8 21 37 57 46 57 1 0 -6 -17 -16 -37z"/>
<path d="M1350 1215 l0 -158 123 6 c144 7 160 11 151 41 -39 133 -140 242
-243 262 l-31 7 0 -158z"/>
<path d="M1985 1161 c-18 -17 -158 -69 -235 -87 l-75 -17 -1 -132 0 -132 59
-12 c53 -11 156 -46 244 -82 31 -12 34 -12 63 16 17 17 45 58 62 93 55 112 38
226 -47 321 -38 42 -53 49 -70 32z"/>
<path d="M1555 1040 c-27 -5 -85 -9 -128 -9 l-78 -1 3 -102 3 -103 115 -7 c63
-4 126 -8 140 -10 20 -2 25 2 31 27 9 40 11 145 3 184 -7 33 -7 33 -89 21z"/>
<path d="M1350 645 l0 -157 28 7 c90 21 170 92 216 189 39 83 38 89 -14 97
-25 3 -87 10 -137 13 l-93 8 0 -157z"/>
</g>
</svg>
