<?xml version="1.0" encoding="UTF-8" standalone="no"?>
<!-- Created with Inkscape (http://www.inkscape.org/) -->
<svg xmlns:dc="http://purl.org/dc/elements/1.1/" xmlns:cc="http://creativecommons.org/ns#" xmlns:rdf="http://www.w3.org/1999/02/22-rdf-syntax-ns#" xmlns:svg="http://www.w3.org/2000/svg" xmlns="http://www.w3.org/2000/svg" xmlns:sodipodi="http://sodipodi.sourceforge.net/DTD/sodipodi-0.dtd" xmlns:inkscape="http://www.inkscape.org/namespaces/inkscape" width="350" height="350" id="svg2" sodipodi:version="0.32" inkscape:version="0.46" version="1.0" sodipodi:docname="Right-hand_grip_rule.svg" inkscape:output_extension="org.inkscape.output.svg.inkscape">
  <defs id="defs4">
    <marker inkscape:stockid="Arrow1Sstart" orient="auto" refY="0" refX="0" id="Arrow1Sstart" style="overflow: visible;">
      <path id="path3250" d="M 0,0 L 5,-5 L -12.5,0 L 5,5 L 0,0 z" style="fill-rule: evenodd; stroke: rgb(0, 0, 0); stroke-width: 1pt; marker-start: none;" transform="matrix(0.2, 0, 0, 0.2, 1.2, 0)"/>
    </marker>
    <marker inkscape:stockid="Arrow1Lstart" orient="auto" refY="0" refX="0" id="Arrow1Lstart" style="overflow: visible;">
      <path id="path3238" d="M 0,0 L 5,-5 L -12.5,0 L 5,5 L 0,0 z" style="fill-rule: evenodd; stroke: rgb(0, 0, 0); stroke-width: 1pt; marker-start: none;" transform="matrix(0.8, 0, 0, 0.8, 10, 0)"/>
    </marker>
    <inkscape:perspective sodipodi:type="inkscape:persp3d" inkscape:vp_x="0 : 526.18109 : 1" inkscape:vp_y="0 : 1000 : 0" inkscape:vp_z="744.09448 : 526.18109 : 1" inkscape:persp3d-origin="372.04724 : 350.78739 : 1" id="perspective10"/>
    <inkscape:perspective id="perspective2447" inkscape:persp3d-origin="372.04724 : 350.78739 : 1" inkscape:vp_z="744.09448 : 526.18109 : 1" inkscape:vp_y="0 : 1000 : 0" inkscape:vp_x="0 : 526.18109 : 1" sodipodi:type="inkscape:persp3d"/>
  </defs>
  <sodipodi:namedview id="base" pagecolor="#ffffff" bordercolor="#666666" borderopacity="1.0" gridtolerance="10000" guidetolerance="10" objecttolerance="10" inkscape:pageopacity="0.0" inkscape:pageshadow="2" inkscape:zoom="1.8649573" inkscape:cx="291.42574" inkscape:cy="166.96986" inkscape:document-units="px" inkscape:current-layer="layer1" showgrid="false" inkscape:window-width="1440" inkscape:window-height="856" inkscape:window-x="0" inkscape:window-y="0"/>
  <metadata id="metadata7">
    <rdf:RDF>
      <cc:Work rdf:about="">
        <dc:format>image/svg+xml</dc:format>
        <dc:type rdf:resource="http://purl.org/dc/dcmitype/StillImage"/>
      </cc:Work>
    </rdf:RDF>
  </metadata>
  <g inkscape:label="Layer 1" inkscape:groupmode="layer" id="layer1" transform="translate(-319.089, -547.474)">
    <path style="fill: rgb(0, 0, 0);" d="M 520.96887,815.99449 C 519.53239,812.89349 508.36217,810.51656 492.94771,800.85387 C 479.41351,792.36985 475.45933,786.62706 468.63452,777.53654 C 462.84003,769.81838 461.89431,765.00723 457.61398,760.80541 L 452.05695,755.3503 L 394.48189,819.8503 C 393.35437,819.8503 388.19274,815.626 388.19274,814.70324 L 445.25776,749.75035 L 443.17869,746.83056 C 442.0352,745.22468 440.66375,743.6414 440.13103,743.31216 C 438.95552,742.58565 436.79507,737.66667 433.59255,728.42515 C 430.31848,718.97713 430.32114,709.26417 433.59973,702.22284 C 434.91283,699.40273 436.40954,696.83434 436.92576,696.5153 C 437.44197,696.19627 437.66028,693.4747 437.41089,690.46739 C 436.61271,680.84234 438.47519,676.00388 446.20936,667.6103 C 449.98704,663.51054 453.36583,658.84986 453.71778,657.25324 C 454.06974,655.65662 455.27906,651.9725 456.40516,649.0663 C 459.11942,642.06145 464.39728,638.78327 474.0757,638.09079 L 480.809,637.60902 L 482.49476,632.86265 C 483.54933,629.89342 485.82165,626.60354 488.56365,624.07606 C 492.46059,620.48398 493.68106,619.95719 499.56655,619.32691 C 509.86059,618.22451 516.12641,620.69011 534.55299,633.09405 C 541.86925,638.01902 543.62662,638.82241 544.63771,637.70433 L 591.4777,585.16743 L 584.12798,578.58626 C 593.85167,574.9193 603.31881,570.44082 613.28636,567.47382 C 613.77546,567.722 606.44085,595.57122 605.58875,596.70129 L 598.69679,590.763 L 550.69274,645.68701 C 550.69274,646.66204 566.51513,659.79314 570.85198,662.41729 C 575.56575,665.2695 578.80924,665.0061 581.9541,661.51569 C 583.69339,659.58529 589.1124,650.11313 598.55534,632.49755 C 605.11249,620.26534 608.53549,617.72073 626.95945,611.38235 C 637.9913,607.58707 640.99731,607.21493 646.29352,608.98882 C 659.10047,613.27834 660.24102,628.95863 648.23681,635.70538 C 643.08939,638.59839 637.79271,645.5058 635.6127,652.16853 C 634.6802,655.0185 632.94098,659.1503 631.74776,661.3503 C 629.18708,666.07159 627.7616,672.2234 625.60728,687.8503 C 624.00542,699.46978 621.62278,708.12686 618.1569,714.92055 C 614.5783,721.93519 609.72898,744.57785 608.53442,759.8503 C 608.1238,765.10006 608.62252,772.00079 610.19663,782.8503 C 611.92586,794.76899 612.31555,800.85781 611.8832,809.20287 C 611.57396,815.17178 611.08808,820.28829 610.80347,820.5729 L 603.18914,819.759 L 603.78191,808.55465 C 604.24777,799.74917 603.927,794.62405 602.28371,784.61684 C 601.13368,777.61344 600.19274,768.72298 600.19274,764.86026 C 600.19274,749.79447 605.60503,723.49634 611.5946,709.45897 C 614.75133,702.06075 616.57999,693.82049 618.72009,677.3503 C 619.72779,669.59509 621.75165,662.65425 624.70431,656.82746 C 626.18994,653.89572 628.04772,649.33428 628.8327,646.69095 C 630.1871,642.13019 635.95202,635.41026 645.60856,627.13603 C 649.32561,623.95106 649.15485,619.39918 645.2424,617.37598 C 641.26339,615.31835 640.40542,615.40007 630.3838,618.79117 C 612.64104,624.79495 611.289,625.96327 601.81206,643.48045 C 590.76309,663.90336 588.35175,667.58836 584.44874,670.01503 C 578.98068,673.41476 572.08294,673.14357 566.19274,669.29727 C 561.62485,666.31444 547.59286,654.696 545.60587,652.2514 C 544.74375,651.19074 543.59382,651.99325 540.04495,656.13226 C 533.85559,663.35084 533.9295,663.10841 536.17867,668.8146 C 538.73548,675.30127 538.90791,685.83103 536.52342,689.86764 C 535.6053,691.4219 533.78957,693.2633 532.48846,693.95963 C 530.91537,694.80152 530.3426,695.7491 530.77886,696.78799 C 531.13968,697.64726 531.66194,700.48021 531.93943,703.08342 C 532.34371,706.87613 531.90407,708.92004 529.7267,713.37042 C 526.05818,720.86861 523.74546,722.24937 515.91296,721.61766 L 509.69274,721.11599 L 509.98189,727.23314 C 510.50175,738.23136 504.74937,743.84002 492.94274,743.84656 C 487.53341,743.84956 486.19274,744.15614 486.19274,745.39014 C 486.19274,748.08427 482.38806,754.50817 479.20715,757.18472 C 477.51685,758.60702 474.64825,760.04942 472.8325,760.39006 L 469.53114,761.0094 L 475.33588,772.89629 C 481.88778,783.36116 487.61887,786.75315 498.00434,794.16687 C 514.55761,805.9835 525.10938,805.26594 528.3756,813.561 C 529.77188,817.10705 537.47395,825.59523 537.22799,825.75495 C 536.22963,826.40326 535.24335,827.08063 534.65441,827.48332 C 534.06548,827.88602 534.17865,827.67065 531.53853,829.63557 C 531.53853,829.63557 524.03911,822.62236 520.96887,815.99449 z M 475.45542,749.68121 C 480.35894,743.88438 478.289,738.65503 468.24631,731.46861 C 459.946,725.52902 453.31781,719.2546 446.70922,711.08101 C 443.55588,707.18093 441.37623,705.26681 440.77411,705.86893 C 438.66939,707.97365 438.90644,718.47783 441.21724,725.50487 C 444.7032,736.10557 446.53748,739.03077 453.57087,745.20575 C 462.44102,752.99331 471.1476,754.77383 475.45542,749.68121 z M 500.19274,733.8503 C 502.81688,731.22616 502.79053,725.71663 500.12755,720.21563 C 498.50237,716.85847 496.70071,715.18804 491.67151,712.37555 C 488.15655,710.40987 485.00487,708.35533 484.66777,707.80991 C 484.33068,707.26448 480.8234,704.61884 476.87381,701.93071 C 466.88029,695.12902 460.80658,688.53443 456.33168,679.62687 L 452.50234,672.00435 L 449.34754,676.10911 C 446.51763,679.79115 446.19274,680.91602 446.19274,687.03208 C 446.13563,692.00975 447.95884,696.43787 449.34115,701.16604 C 451.85101,705.93976 464.71044,719.02106 471.82585,724.03869 C 475.96862,726.96007 481.16352,730.8128 483.37006,732.6003 C 486.79071,735.37133 488.17859,735.8503 492.78735,735.8503 C 496.85941,735.8503 498.68608,735.35696 500.19274,733.8503 z M 521.63116,711.63476 C 524.0184,708.22649 524.5201,703.56954 522.91411,699.72587 C 521.84616,697.1699 519.73822,695.26327 514.76443,692.35449 C 510.30171,689.7446 504.40925,684.66714 497.16599,677.19015 C 486.17143,665.8408 481.9739,659.53114 480.62111,652.32016 C 479.57895,646.76497 477.957,645.47247 473.01889,646.26211 C 465.0323,647.53922 463.15321,650.07827 461.21486,662.21182 C 460.1616,668.80497 460.17075,668.85082 464.08323,676.58818 C 468.5784,685.47788 470.72553,687.66032 485.19274,698.04481 C 496.37297,706.06992 501.64505,709.05692 509.68105,711.91913 C 516.6132,714.38819 519.75495,714.31342 521.63116,711.63476 z M 528.25848,686.81512 C 529.8029,685.98857 530.19274,684.69552 530.19274,680.39943 C 530.19274,675.85083 529.32191,673.29224 524.56051,663.85131 C 518.38712,651.61066 516.24575,642.83353 519.7942,644.31491 C 520.8384,644.75083 522.70524,645.32708 523.94274,645.59547 C 525.18024,645.86386 526.2116,646.81849 526.23466,647.71688 C 526.25771,648.61526 527.05892,650.81698 528.01514,652.60958 L 529.7537,655.86886 L 533.47322,651.41912 C 535.51896,648.97177 537.19274,646.50431 537.19274,645.93589 C 537.19274,642.82199 509.60247,626.84417 504.24564,626.85588 C 499.22599,626.86684 494.28244,628.91559 492.19209,631.85121 C 486.17852,640.8838 487.72953,650.20401 492.44274,659.42323 C 497.15409,666.54944 514.03386,683.06776 519.2359,685.64267 C 524.25756,688.1283 525.5025,688.29007 528.25848,686.81512 z" id="path2453" sodipodi:nodetypes="cssccccccsssssssscccssscccccccssssssssssssssccsssssssssssssssssssscccssscccsssscscsssssccsssscccccsssccsssssssssccssssscccssccsc"/>
    <path style="fill:none;fill-opacity:1;fill-rule:evenodd;stroke:#000000;stroke-width:9;stroke-linecap:round;stroke-linejoin:round;marker-start:url(#Arrow1Sstart);stroke-miterlimit:4;stroke-dashoffset:0;stroke-opacity:1" d="M 362.70924,823.66692 C 343.79407,803.20702 335.22976,782.13458 343.30824,772.4984 C 353.2338,760.65896 384.54269,770.54452 413.19414,794.5644 C 441.84559,818.58429 457.0434,847.68749 447.11783,859.52693 L 447.11782,859.52696 C 439.48971,868.62593 419.23169,864.89321 397.25655,851.77442" id="path3233"/>
  </g>
</svg>