<svg version="1.1" xmlns="http://www.w3.org/2000/svg" xmlns:xlink="http://www.w3.org/1999/xlink" width="800" height="800"><defs/><g transform="scale(2,2)"><g id="background-00ef881b"><rect fill="white" stroke="none" x="0" y="0" width="400" height="400" class="dcg-svg-background"/></g><g id="background-images-00ef881b"/><g id="graphpaper-00ef881b"><g id="grid-00ef881b"><g><path fill="none" stroke="rgb(0,0,0)" class="dcg-svg-minor-gridline" paint-order="fill stroke markers" d=" M -0.5 0 L -0.5 400" stroke-opacity="0.2" stroke-miterlimit="10" stroke-dasharray=""/><path fill="none" stroke="rgb(0,0,0)" class="dcg-svg-minor-gridline" paint-order="fill stroke markers" d=" M 19.5 0 L 19.5 400" stroke-opacity="0.2" stroke-miterlimit="10" stroke-dasharray=""/><path fill="none" stroke="rgb(0,0,0)" class="dcg-svg-minor-gridline" paint-order="fill stroke markers" d=" M 39.5 0 L 39.5 400" stroke-opacity="0.2" stroke-miterlimit="10" stroke-dasharray=""/><path fill="none" stroke="rgb(0,0,0)" class="dcg-svg-minor-gridline" paint-order="fill stroke markers" d=" M 59.5 0 L 59.5 400" stroke-opacity="0.2" stroke-miterlimit="10" stroke-dasharray=""/><path fill="none" stroke="rgb(0,0,0)" class="dcg-svg-minor-gridline" paint-order="fill stroke markers" d=" M 79.5 0 L 79.5 400" stroke-opacity="0.2" stroke-miterlimit="10" stroke-dasharray=""/><path fill="none" stroke="rgb(0,0,0)" class="dcg-svg-minor-gridline" paint-order="fill stroke markers" d=" M 99.5 0 L 99.5 400" stroke-opacity="0.2" stroke-miterlimit="10" stroke-dasharray=""/><path fill="none" stroke="rgb(0,0,0)" class="dcg-svg-minor-gridline" paint-order="fill stroke markers" d=" M 119.5 0 L 119.5 400" stroke-opacity="0.2" stroke-miterlimit="10" stroke-dasharray=""/><path fill="none" stroke="rgb(0,0,0)" class="dcg-svg-minor-gridline" paint-order="fill stroke markers" d=" M 139.5 0 L 139.5 400" stroke-opacity="0.2" stroke-miterlimit="10" stroke-dasharray=""/><path fill="none" stroke="rgb(0,0,0)" class="dcg-svg-minor-gridline" paint-order="fill stroke markers" d=" M 159.5 0 L 159.5 400" stroke-opacity="0.2" stroke-miterlimit="10" stroke-dasharray=""/><path fill="none" stroke="rgb(0,0,0)" class="dcg-svg-minor-gridline" paint-order="fill stroke markers" d=" M 179.5 0 L 179.5 400" stroke-opacity="0.2" stroke-miterlimit="10" stroke-dasharray=""/><path fill="none" stroke="rgb(0,0,0)" class="dcg-svg-minor-gridline" paint-order="fill stroke markers" d=" M 219.5 0 L 219.5 400" stroke-opacity="0.2" stroke-miterlimit="10" stroke-dasharray=""/><path fill="none" stroke="rgb(0,0,0)" class="dcg-svg-minor-gridline" paint-order="fill stroke markers" d=" M 239.5 0 L 239.5 400" stroke-opacity="0.2" stroke-miterlimit="10" stroke-dasharray=""/><path fill="none" stroke="rgb(0,0,0)" class="dcg-svg-minor-gridline" paint-order="fill stroke markers" d=" M 259.5 0 L 259.5 400" stroke-opacity="0.2" stroke-miterlimit="10" stroke-dasharray=""/><path fill="none" stroke="rgb(0,0,0)" class="dcg-svg-minor-gridline" paint-order="fill stroke markers" d=" M 279.5 0 L 279.5 400" stroke-opacity="0.2" stroke-miterlimit="10" stroke-dasharray=""/><path fill="none" stroke="rgb(0,0,0)" class="dcg-svg-minor-gridline" paint-order="fill stroke markers" d=" M 299.5 0 L 299.5 400" stroke-opacity="0.2" stroke-miterlimit="10" stroke-dasharray=""/><path fill="none" stroke="rgb(0,0,0)" class="dcg-svg-minor-gridline" paint-order="fill stroke markers" d=" M 319.5 0 L 319.5 400" stroke-opacity="0.2" stroke-miterlimit="10" stroke-dasharray=""/><path fill="none" stroke="rgb(0,0,0)" class="dcg-svg-minor-gridline" paint-order="fill stroke markers" d=" M 339.5 0 L 339.5 400" stroke-opacity="0.2" stroke-miterlimit="10" stroke-dasharray=""/><path fill="none" stroke="rgb(0,0,0)" class="dcg-svg-minor-gridline" paint-order="fill stroke markers" d=" M 359.5 0 L 359.5 400" stroke-opacity="0.2" stroke-miterlimit="10" stroke-dasharray=""/><path fill="none" stroke="rgb(0,0,0)" class="dcg-svg-minor-gridline" paint-order="fill stroke markers" d=" M 379.5 0 L 379.5 400" stroke-opacity="0.2" stroke-miterlimit="10" stroke-dasharray=""/><path fill="none" stroke="rgb(0,0,0)" class="dcg-svg-minor-gridline" paint-order="fill stroke markers" d=" M 0 381.5 L 400 381.5" stroke-opacity="0.2" stroke-miterlimit="10" stroke-dasharray=""/><path fill="none" stroke="rgb(0,0,0)" class="dcg-svg-minor-gridline" paint-order="fill stroke markers" d=" M 0 356.5 L 400 356.5" stroke-opacity="0.2" stroke-miterlimit="10" stroke-dasharray=""/><path fill="none" stroke="rgb(0,0,0)" class="dcg-svg-minor-gridline" paint-order="fill stroke markers" d=" M 0 332.5 L 400 332.5" stroke-opacity="0.2" stroke-miterlimit="10" stroke-dasharray=""/><path fill="none" stroke="rgb(0,0,0)" class="dcg-svg-minor-gridline" paint-order="fill stroke markers" d=" M 0 308.5 L 400 308.5" stroke-opacity="0.2" stroke-miterlimit="10" stroke-dasharray=""/><path fill="none" stroke="rgb(0,0,0)" class="dcg-svg-minor-gridline" paint-order="fill stroke markers" d=" M 0 259.5 L 400 259.5" stroke-opacity="0.2" stroke-miterlimit="10" stroke-dasharray=""/><path fill="none" stroke="rgb(0,0,0)" class="dcg-svg-minor-gridline" paint-order="fill stroke markers" d=" M 0 235.5 L 400 235.5" stroke-opacity="0.2" stroke-miterlimit="10" stroke-dasharray=""/><path fill="none" stroke="rgb(0,0,0)" class="dcg-svg-minor-gridline" paint-order="fill stroke markers" d=" M 0 210.5 L 400 210.5" stroke-opacity="0.2" stroke-miterlimit="10" stroke-dasharray=""/><path fill="none" stroke="rgb(0,0,0)" class="dcg-svg-minor-gridline" paint-order="fill stroke markers" d=" M 0 186.5 L 400 186.5" stroke-opacity="0.2" stroke-miterlimit="10" stroke-dasharray=""/><path fill="none" stroke="rgb(0,0,0)" class="dcg-svg-minor-gridline" paint-order="fill stroke markers" d=" M 0 162.5 L 400 162.5" stroke-opacity="0.2" stroke-miterlimit="10" stroke-dasharray=""/><path fill="none" stroke="rgb(0,0,0)" class="dcg-svg-minor-gridline" paint-order="fill stroke markers" d=" M 0 137.5 L 400 137.5" stroke-opacity="0.2" stroke-miterlimit="10" stroke-dasharray=""/><path fill="none" stroke="rgb(0,0,0)" class="dcg-svg-minor-gridline" paint-order="fill stroke markers" d=" M 0 113.5 L 400 113.5" stroke-opacity="0.2" stroke-miterlimit="10" stroke-dasharray=""/><path fill="none" stroke="rgb(0,0,0)" class="dcg-svg-minor-gridline" paint-order="fill stroke markers" d=" M 0 89.5 L 400 89.5" stroke-opacity="0.2" stroke-miterlimit="10" stroke-dasharray=""/><path fill="none" stroke="rgb(0,0,0)" class="dcg-svg-minor-gridline" paint-order="fill stroke markers" d=" M 0 64.5 L 400 64.5" stroke-opacity="0.2" stroke-miterlimit="10" stroke-dasharray=""/><path fill="none" stroke="rgb(0,0,0)" class="dcg-svg-minor-gridline" paint-order="fill stroke markers" d=" M 0 40.5 L 400 40.5" stroke-opacity="0.2" stroke-miterlimit="10" stroke-dasharray=""/><path fill="none" stroke="rgb(0,0,0)" class="dcg-svg-minor-gridline" paint-order="fill stroke markers" d=" M 0 16.5 L 400 16.5" stroke-opacity="0.2" stroke-miterlimit="10" stroke-dasharray=""/><path fill="none" stroke="rgb(0,0,0)" class="dcg-svg-major-gridline" paint-order="fill stroke markers" d=" M -0.5 0 L -0.5 400" stroke-opacity="0.2500000000000001" stroke-miterlimit="10" stroke-dasharray=""/><path fill="none" stroke="rgb(0,0,0)" class="dcg-svg-major-gridline" paint-order="fill stroke markers" d=" M 99.5 0 L 99.5 400" stroke-opacity="0.2500000000000001" stroke-miterlimit="10" stroke-dasharray=""/><path fill="none" stroke="rgb(0,0,0)" class="dcg-svg-major-gridline" paint-order="fill stroke markers" d=" M 299.5 0 L 299.5 400" stroke-opacity="0.2500000000000001" stroke-miterlimit="10" stroke-dasharray=""/><path fill="none" stroke="rgb(0,0,0)" class="dcg-svg-major-gridline" paint-order="fill stroke markers" d=" M 0 162.5 L 400 162.5" stroke-opacity="0.2500000000000001" stroke-miterlimit="10" stroke-dasharray=""/><path fill="none" stroke="rgb(0,0,0)" class="dcg-svg-major-gridline" paint-order="fill stroke markers" d=" M 0 40.5 L 400 40.5" stroke-opacity="0.2500000000000001" stroke-miterlimit="10" stroke-dasharray=""/></g></g><g id="axis-00ef881b"><g id="yaxis-00ef881b"><title>Y axis</title><path fill="none" stroke="rgb(0,0,0)" class="dcg-svg-axis-line" paint-order="fill stroke markers" d=" M 200 0 L 200 400" stroke-opacity="0.9" stroke-miterlimit="10" stroke-width="1.5" stroke-dasharray=""/></g><g id="xaxis-00ef881b"><title>X axis</title><path fill="none" stroke="rgb(0,0,0)" class="dcg-svg-axis-line" paint-order="fill stroke markers" d=" M 0 284 L 400 284" stroke-opacity="0.9" stroke-miterlimit="10" stroke-width="1.5" stroke-dasharray=""/></g><g><g class="dcg-svg-axis-value"><text fill="none" stroke="#ffffff" font-family="Arial" font-size="14px" font-style="normal" font-weight="normal" text-decoration="normal" x="191.1083333492279" y="300.0471304347826" text-anchor="middle" stroke-miterlimit="2" stroke-width="3" stroke-dasharray="">0</text><text fill="#000000" stroke="none" font-family="Arial" font-size="14px" font-style="normal" font-weight="normal" text-decoration="normal" x="191.1083333492279" y="300.0471304347826" text-anchor="middle">0</text></g><g class="dcg-svg-axis-value dcg-svg-offcenter-axis-value"><text fill="none" stroke="#ffffff" font-family="Arial" font-size="14px" font-style="normal" font-weight="normal" text-decoration="normal" x="13.116666793823242" y="300.0471304347826" text-anchor="middle" stroke-miterlimit="2" stroke-width="3" stroke-dasharray="">-20</text><text fill="#000000" stroke="none" font-family="Arial" font-size="14px" font-style="normal" font-weight="normal" text-decoration="normal" x="13.116666793823242" y="300.0471304347826" text-anchor="middle">-20</text></g><g class="dcg-svg-axis-value"><text fill="none" stroke="#ffffff" font-family="Arial" font-size="14px" font-style="normal" font-weight="normal" text-decoration="normal" x="97.66666674613953" y="300.0471304347826" text-anchor="middle" stroke-miterlimit="2" stroke-width="3" stroke-dasharray="">-10</text><text fill="#000000" stroke="none" font-family="Arial" font-size="14px" font-style="normal" font-weight="normal" text-decoration="normal" x="97.66666674613953" y="300.0471304347826" text-anchor="middle">-10</text></g><g class="dcg-svg-axis-value"><text fill="none" stroke="#ffffff" font-family="Arial" font-size="14px" font-style="normal" font-weight="normal" text-decoration="normal" x="300" y="300.0471304347826" text-anchor="middle" stroke-miterlimit="2" stroke-width="3" stroke-dasharray="">10</text><text fill="#000000" stroke="none" font-family="Arial" font-size="14px" font-style="normal" font-weight="normal" text-decoration="normal" x="300" y="300.0471304347826" text-anchor="middle">10</text></g><g class="dcg-svg-axis-value dcg-svg-offcenter-axis-value"><text fill="none" stroke="#ffffff" font-family="Arial" font-size="14px" font-style="normal" font-weight="normal" text-decoration="normal" x="389.2166666984558" y="300.0471304347826" text-anchor="middle" stroke-miterlimit="2" stroke-width="3" stroke-dasharray="">20</text><text fill="#000000" stroke="none" font-family="Arial" font-size="14px" font-style="normal" font-weight="normal" text-decoration="normal" x="389.2166666984558" y="300.0471304347826" text-anchor="middle">20</text></g><g class="dcg-svg-axis-value"><text fill="none" stroke="#ffffff" font-family="Arial" font-size="14px" font-style="normal" font-weight="normal" text-decoration="normal" x="187.2166666984558" y="166.43970753744705" text-anchor="middle" stroke-miterlimit="2" stroke-width="3" stroke-dasharray="">50</text><text fill="#000000" stroke="none" font-family="Arial" font-size="14px" font-style="normal" font-weight="normal" text-decoration="normal" x="187.2166666984558" y="166.43970753744705" text-anchor="middle">50</text></g><g class="dcg-svg-axis-value"><text fill="none" stroke="#ffffff" font-family="Arial" font-size="14px" font-style="normal" font-weight="normal" text-decoration="normal" x="183.32499980926514" y="44.83228464011149" text-anchor="middle" stroke-miterlimit="2" stroke-width="3" stroke-dasharray="">100</text><text fill="#000000" stroke="none" font-family="Arial" font-size="14px" font-style="normal" font-weight="normal" text-decoration="normal" x="183.32499980926514" y="44.83228464011149" text-anchor="middle">100</text></g></g></g></g><g id="expressions-00ef881b"><g id="sketch-00ef881b"><title>Expression 1</title><path fill="#c74440" stroke="none" paint-order="stroke fill markers" d="" fill-opacity="0.4"/><g><path fill="none" stroke="#c74440" class="dcg-svg-curve" paint-order="fill stroke markers" d=" M -0.5 131.72985181311265 L -0.5 131.72985181311265 L 0.671875 115.09275919566448 L 1.6484375 103.90271562457087 L 2.4296875 97.04500093976526 L 3.11328125 92.73231666350142 L 3.6015625 90.66983962006304 L 3.9921875 89.64825117997611 L 4.28515625 89.25341614738977 L 4.4999999999999645 89.16725379904568 L 4.67578125 89.22493594379415 L 4.87109375 89.42423065229036 L 5.1640625 89.98923728255085 L 5.5546875 91.23561474258219 L 6.04296875 93.57358178556007 L 6.62890625 97.48970831065793 L 7.3125 103.51343608848924 L 8.09375 112.16262756488453 L 9.0703125 125.27666465813115 L 10.33984375 145.28701662608702 L 12.5859375 184.7126825494507 L 14.44140625 215.9471780082167 L 15.61328125 232.7370401836539 L 16.58984375 244.08943919675878 L 17.37109375 251.09519134370345 L 18.0546875 255.54729697755823 L 18.54296875 257.7133574852227 L 18.93359375 258.819382961157 L 19.2265625 259.27809168898364 L 19.421875 259.4062508186262 L 19.6171875 259.39200773778987 L 19.8125 259.23538627629034 L 20.10546875 258.7341328693008 L 20.49609375 257.57190778741835 L 20.984375 255.33697189864938 L 21.5703125 251.53989871459538 L 22.25390625 245.64649220316159 L 23.03515625 237.13168603770936 L 24.01171875 224.15860727602126 L 25.28125 204.27780420739506 L 27.33203125 168.37757429318754 L 29.3828125 133.55186452802172 L 30.5546875 116.61176128608207 L 31.53125 105.09871646049953 L 32.3125 97.94598189191959 L 32.99609375 93.35512537120667 L 33.58203125 90.73567601330672 L 33.97265625 89.6859241720004 L 34.265625 89.26979082570483 L 34.5 89.16725379904568 L 34.65625 89.21283089507597 L 34.8515625 89.39790420541891 L 35.14453125 89.94166874159538 L 35.53515625 91.16001563918479 L 36.0234375 93.46367731996014 L 36.609375 97.3401840427124 L 37.29296875 103.32057122659671 L 38.07421875 111.92511133021634 L 39.05078125 124.99238070693997 L 40.3203125 144.9598835860373 L 42.46875 182.63617811185188 L 44.421875 215.6431539405765 L 45.59375 232.48337854020167 L 46.5703125 243.8895173163352 L 47.3515625 250.94438192693625 L 48.03515625 255.44281338713654 L 48.5234375 257.6433299960979 L 48.9140625 258.77746476380787 L 49.20703125 259.25744984703783 L 49.40234375 259.3998413339352 L 49.59765625 259.3998413339352 L 49.79296875 259.25744984703783 L 50.0859375 258.7774647638078 L 50.4765625 257.6433299960978 L 50.96484375 255.44281338713628 L 51.55078125 251.6855526102652 L 52.234375 245.83578472187708 L 53.015625 237.3660596202884 L 53.9921875 224.44040218101122 L 55.26171875 204.60344838324087 L 57.3125 168.7249956306111 L 59.36328125 133.85794906543214 L 60.53515625 116.86833127664693 L 61.51171875 105.30212195351533 L 62.29296875 98.10063152828116 L 62.9765625 93.46367731995997 L 63.5625 90.80291057134633 L 63.953125 89.72501289443511 L 64.24609375 89.2875881976359 L 64.44140625 89.17366356974907 L 64.734375 89.26979082570489 L 65.02734375 89.68592417200045 L 65.41796875 90.73567601330683 L 65.90625 92.83271616074717 L 66.4921875 96.4701651620843 L 67.17578125 102.18843280144989 L 67.95703125 110.52206739156105 L 68.93359375 123.30416633692602 L 70.10546875 141.39501288180372 L 71.9609375 173.59602871466228 L 74.3046875 213.80465795019666 L 75.57421875 232.22874318146293 L 76.55078125 243.6884308604355 L 77.33203125 250.79228988485792 L 78.015625 255.33697189864947 L 78.6015625 257.9150600342981 L 78.9921875 258.9366484743851 L 79.28515625 259.3314835069714 L 79.5 259.4176458553155 L 79.67578125 259.35996371056706 L 79.87109375 259.1606690020708 L 80.1640625 258.59566237181036 L 80.5546875 257.349284911779 L 81.04296875 255.01131786880123 L 81.62890625 251.09519134370325 L 82.3125 245.07146356587194 L 83.09375 236.42227208947648 L 84.0703125 223.30823499623037 L 85.33984375 203.29788302827419 L 87.5859375 163.87221710491085 L 89.44140625 132.63772164614454 L 90.61328125 115.84785947070753 L 91.58984375 104.49546045760246 L 92.37109375 97.48970831065776 L 93.0546875 93.03760267680309 L 93.54296875 90.87154216913854 L 93.93359375 89.76551669320429 L 94.2265625 89.30680796537757 L 94.421875 89.17864883573498 L 94.6171875 89.19289191657128 L 94.8125 89.34951337807087 L 95.10546875 89.85076678506033 L 95.49609375 91.0129918669428 L 95.984375 93.24792775571188 L 96.5703125 97.04500093976566 L 97.25390625 102.9384074511994 L 98.03515625 111.4532136166518 L 99.01171875 124.4262923783399 L 100.28125 144.3070954469658 L 102.33203125 180.20732536117384 L 104.3828125 215.0330351263394 L 105.5546875 231.97313836827928 L 106.53125 243.48618319386145 L 107.3125 250.63891776244157 L 107.99609375 255.22977428315448 L 108.58203125 257.84922364105444 L 108.97265625 258.8989754823608 L 109.265625 259.3151088286563 L 109.5 259.4176458553155 L 109.65625 259.3720687592852 L 109.8515625 259.18699544894224 L 110.14453125 258.64323091276583 L 110.53515625 257.4248840151764 L 111.0234375 255.12122233440104 L 111.609375 251.24471561164876 L 112.29296875 245.26432842776464 L 113.07421875 236.65978832414504 L 114.05078125 223.59251894742127 L 115.3203125 203.62501606832362 L 117.46875 165.9487215425094 L 119.421875 132.941745713785 L 120.59375 116.10152111415954 L 121.5703125 104.69538233802598 L 122.3515625 97.64051772742499 L 123.03515625 93.14208626722473 L 123.5234375 90.94156965826329 L 123.9140625 89.80743489055328 L 124.20703125 89.32744980732326 L 124.40234375 89.18505832042592 L 124.59765625 89.18505832042592 L 124.79296875 89.32744980732332 L 125.0859375 89.80743489055328 L 125.4765625 90.94156965826335 L 125.96484375 93.14208626722478 L 126.55078125 96.89934704409586 L 127.234375 102.74911493248408 L 128.015625 111.21884003407263 L 128.9921875 124.14449747334993 L 130.26171875 143.98145127112028 L 132.3125 179.85990402375006 L 134.36328125 214.72695058892887 L 135.53515625 231.71656837771422 L 136.51171875 243.2827777008458 L 137.29296875 250.48426812607994 L 137.9765625 255.12122233440112 L 138.5625 257.7819890830149 L 138.953125 258.85988675992604 L 139.24609375 259.29731145672525 L 139.44140625 259.41123608461214 L 139.734375 259.3151088286563 L 140.02734375 258.8989754823607 L 140.41796875 257.84922364105444 L 140.90625 255.7521834936141 L 141.4921875 252.11473449227688 L 142.17578125 246.39646685291137 L 142.95703125 238.06283226280013 L 143.93359375 225.28073331743528 L 145.10546875 207.18988677255746 L 146.9609375 174.9888709396991 L 149.3046875 134.7802417041646 L 150.57421875 116.35615647289836 L 151.55078125 104.89646879392569 L 152.33203125 97.79260976950337 L 153.015625 93.24792775571177 L 153.6015625 90.6698396200631 L 153.9921875 89.64825117997611 L 154.28515625 89.25341614738977 L 154.5 89.16725379904568 L 154.67578125 89.22493594379415 L 154.87109375 89.42423065229036 L 155.1640625 89.98923728255079 L 155.5546875 91.23561474258207 L 156.04296875 93.5735817855599 L 156.62890625 97.48970831065787 L 157.3125 103.51343608848913 L 158.09375 112.16262756488442 L 159.0703125 125.27666465813076 L 160.33984375 145.28701662608677 L 162.5859375 184.7126825494503 L 164.44140625 215.94717800821664 L 165.61328125 232.73704018365362 L 166.58984375 244.08943919675863 L 167.37109375 251.09519134370342 L 168.0546875 255.54729697755806 L 168.54296875 257.71335748522256 L 168.93359375 258.81938296115686 L 169.2265625 259.27809168898364 L 169.421875 259.4062508186262 L 169.6171875 259.39200773778987 L 169.8125 259.23538627629034 L 170.10546875 258.7341328693008 L 170.49609375 257.5719077874184 L 170.984375 255.33697189864938 L 171.5703125 251.53989871459564 L 172.25390625 245.6464922031618 L 173.03515625 237.13168603770953 L 174.01171875 224.1586072760213 L 175.28125 204.27780420739543 L 177.33203125 168.3775742931876 L 179.3828125 133.55186452802195 L 180.5546875 116.61176128608213 L 181.53125 105.09871646049976 L 182.3125 97.9459818919197 L 182.99609375 93.35512537120673 L 183.58203125 90.73567601330672 L 183.97265625 89.6859241720004 L 184.265625 89.26979082570489 L 184.5 89.16725379904568 L 184.65625 89.21283089507597 L 184.8515625 89.39790420541891 L 185.14453125 89.94166874159532 L 185.53515625 91.16001563918473 L 186.0234375 93.46367731996008 L 186.609375 97.3401840427124 L 187.29296875 103.32057122659637 L 188.07421875 111.92511133021605 L 189.05078125 124.99238070693974 L 190.3203125 144.9598835860373 L 192.46875 182.63617811185165 L 194.421875 215.6431539405761 L 195.59375 232.4833785402015 L 196.5703125 243.8895173163352 L 197.3515625 250.94438192693613 L 198.03515625 255.44281338713643 L 198.5234375 257.64332999609786 L 198.9140625 258.77746476380787 L 199.20703125 259.25744984703783 L 199.40234375 259.3998413339352 L 199.59765625 259.3998413339352 L 199.79296875 259.25744984703783 L 200.0859375 258.77746476380787 L 200.4765625 257.64332999609786 L 200.96484375 255.44281338713643 L 201.55078125 251.68555261026535 L 202.234375 245.83578472187716 L 203.015625 237.36605962028864 L 203.9921875 224.44040218101134 L 205.26171875 204.6034483832411 L 207.3125 168.72499563061123 L 209.36328125 133.85794906543242 L 210.53515625 116.86833127664698 L 211.51171875 105.3021219535155 L 212.29296875 98.10063152828133 L 212.9765625 93.46367731996008 L 213.5625 90.80291057134633 L 213.953125 89.72501289443511 L 214.24609375 89.28758819763596 L 214.44140625 89.17366356974907 L 214.734375 89.26979082570489 L 215.02734375 89.6859241720004 L 215.41796875 90.73567601330672 L 215.90625 92.83271616074705 L 216.4921875 96.47016516208419 L 217.17578125 102.18843280144966 L 217.95703125 110.52206739156088 L 218.93359375 123.30416633692573 L 220.10546875 141.39501288180355 L 221.9609375 173.59602871466188 L 224.3046875 213.8046579501964 L 225.57421875 232.22874318146268 L 226.55078125 243.68843086043543 L 227.33203125 250.79228988485775 L 228.015625 255.33697189864938 L 228.6015625 257.915060034298 L 228.9921875 258.93664847438504 L 229.28515625 259.3314835069714 L 229.5 259.4176458553155 L 229.67578125 259.35996371056706 L 229.87109375 259.16066900207085 L 230.1640625 258.5956623718105 L 230.5546875 257.34928491177914 L 231.04296875 255.0113178688013 L 231.62890625 251.09519134370342 L 232.3125 245.0714635658721 L 233.09375 236.42227208947676 L 234.0703125 223.30823499623057 L 235.33984375 203.2978830282745 L 237.5859375 163.87221710491102 L 239.44140625 132.63772164614466 L 240.61328125 115.8478594707077 L 241.58984375 104.49546045760263 L 242.37109375 97.48970831065787 L 243.0546875 93.03760267680315 L 243.54296875 90.87154216913859 L 243.93359375 89.76551669320429 L 244.2265625 89.30680796537757 L 244.421875 89.17864883573498 L 244.6171875 89.19289191657128 L 244.8125 89.34951337807081 L 245.10546875 89.85076678506033 L 245.49609375 91.01299186694274 L 245.984375 93.24792775571177 L 246.5703125 97.04500093976554 L 247.25390625 102.93840745119928 L 248.03515625 111.45321361665151 L 249.01171875 124.42629237833978 L 250.28125 144.30709544696552 L 252.33203125 180.20732536117347 L 254.3828125 215.03303512633903 L 255.5546875 231.97313836827897 L 256.53125 243.4861831938613 L 257.3125 250.63891776244137 L 257.99609375 255.2297742831544 L 258.58203125 257.84922364105444 L 258.97265625 258.8989754823607 L 259.265625 259.3151088286563 L 259.5 259.4176458553155 L 259.65625 259.3720687592852 L 259.8515625 259.1869954489423 L 260.14453125 258.64323091276583 L 260.53515625 257.42488401517653 L 261.0234375 255.12122233440112 L 261.609375 251.2447156116489 L 262.29296875 245.26432842776487 L 263.07421875 236.6597883241452 L 264.05078125 223.5925189474216 L 265.3203125 203.62501606832402 L 267.46875 165.9487215425096 L 269.421875 132.94174571378517 L 270.59375 116.10152111415971 L 271.5703125 104.69538233802604 L 272.3515625 97.64051772742505 L 273.03515625 93.14208626722478 L 273.5234375 90.94156965826335 L 273.9140625 89.80743489055328 L 274.20703125 89.32744980732332 L 274.40234375 89.18505832042592 L 274.59765625 89.18505832042592 L 274.79296875 89.32744980732326 L 275.0859375 89.80743489055328 L 275.4765625 90.94156965826329 L 275.96484375 93.14208626722473 L 276.55078125 96.89934704409575 L 277.234375 102.74911493248385 L 278.015625 111.21884003407246 L 278.9921875 124.14449747334959 L 280.26171875 143.98145127111985 L 282.3125 179.85990402374992 L 284.36328125 214.72695058892862 L 285.53515625 231.71656837771417 L 286.51171875 243.28277770084557 L 287.29296875 250.48426812607983 L 287.9765625 255.12122233440104 L 288.5625 257.78198908301476 L 288.953125 258.859886759926 L 289.24609375 259.2973114567252 L 289.44140625 259.41123608461214 L 289.734375 259.3151088286563 L 290.02734375 258.8989754823608 L 290.41796875 257.84922364105444 L 290.90625 255.7521834936141 L 291.4921875 252.11473449227705 L 292.17578125 246.39646685291152 L 292.95703125 238.0628322628004 L 293.93359375 225.28073331743548 L 295.10546875 207.18988677255757 L 296.9609375 174.98887093969935 L 299.3046875 134.78024170416495 L 300.57421875 116.35615647289853 L 301.55078125 104.8964687939258 L 302.33203125 97.79260976950343 L 303.015625 93.24792775571188 L 303.6015625 90.66983962006316 L 303.9921875 89.64825117997611 L 304.28515625 89.25341614738977 L 304.5 89.16725379904568 L 304.67578125 89.2249359437941 L 304.87109375 89.42423065229036 L 305.1640625 89.98923728255073 L 305.5546875 91.23561474258202 L 306.04296875 93.57358178555978 L 306.62890625 97.48970831065776 L 307.3125 103.51343608848896 L 308.09375 112.16262756488436 L 309.0703125 125.27666465813047 L 310.33984375 145.28701662608654 L 312.5859375 184.71268254944988 L 314.44140625 215.9471780082165 L 315.61328125 232.7370401836533 L 316.58984375 244.08943919675846 L 317.37109375 251.09519134370325 L 318.0546875 255.547296977558 L 318.54296875 257.71335748522256 L 318.93359375 258.81938296115686 L 319.2265625 259.2780916889836 L 319.421875 259.4062508186262 L 319.6171875 259.39200773778987 L 319.8125 259.23538627629034 L 320.10546875 258.7341328693009 L 320.49609375 257.57190778741847 L 320.984375 255.33697189864947 L 321.5703125 251.53989871459572 L 322.25390625 245.64649220316204 L 323.03515625 237.1316860377097 L 324.01171875 224.15860727602143 L 325.28125 204.27780420739583 L 327.33203125 168.37757429318773 L 329.3828125 133.55186452802218 L 330.5546875 116.61176128608224 L 331.53125 105.09871646049999 L 332.3125 97.94598189191981 L 332.99609375 93.35512537120684 L 333.58203125 90.73567601330683 L 333.97265625 89.68592417200045 L 334.265625 89.26979082570489 L 334.5 89.16725379904568 L 334.65625 89.21283089507597 L 334.8515625 89.39790420541891 L 335.14453125 89.94166874159527 L 335.53515625 91.16001563918468 L 336.0234375 93.46367731995997 L 336.609375 97.34018404271222 L 337.29296875 103.32057122659626 L 338.07421875 111.92511133021583 L 339.05078125 124.99238070693951 L 340.3203125 144.95988358603714 L 342.46875 182.6361781118514 L 344.421875 215.64315394057581 L 345.59375 232.4833785402013 L 346.5703125 243.88951731633512 L 347.3515625 250.944381926936 L 348.03515625 255.44281338713628 L 348.5234375 257.6433299960978 L 348.9140625 258.7774647638078 L 349.20703125 259.25744984703783 L 349.40234375 259.3998413339352 L 349.59765625 259.3998413339352 L 349.79296875 259.25744984703783 L 350.0859375 258.77746476380787 L 350.4765625 257.6433299960979 L 350.96484375 255.44281338713654 L 351.55078125 251.6855526102654 L 352.234375 245.83578472187733 L 353.015625 237.36605962028875 L 353.9921875 224.44040218101162 L 355.26171875 204.6034483832416 L 357.3125 168.7249956306116 L 359.36328125 133.8579490654326 L 360.53515625 116.86833127664727 L 361.51171875 105.30212195351584 L 362.29296875 98.10063152828133 L 362.9765625 93.46367731996014 L 363.5625 90.80291057134639 L 363.953125 89.72501289443517 L 364.24609375 89.28758819763596 L 364.44140625 89.17366356974907 L 364.734375 89.26979082570483 L 365.02734375 89.6859241720004 L 365.41796875 90.73567601330672 L 365.90625 92.83271616074705 L 366.4921875 96.47016516208407 L 367.17578125 102.1884328014495 L 367.95703125 110.52206739156054 L 368.93359375 123.30416633692568 L 370.10546875 141.39501288180332 L 371.9609375 173.59602871466174 L 374.3046875 213.80465795019592 L 375.57421875 232.2287431814626 L 376.55078125 243.6884308604352 L 377.33203125 250.79228988485755 L 378.015625 255.33697189864938 L 378.6015625 257.915060034298 L 378.9921875 258.93664847438504 L 379.28515625 259.3314835069714 L 379.5 259.4176458553155 L 379.67578125 259.35996371056706 L 379.87109375 259.1606690020709 L 380.1640625 258.5956623718105 L 380.5546875 257.34928491177925 L 381.04296875 255.0113178688013 L 381.62890625 251.09519134370345 L 382.3125 245.07146356587222 L 383.09375 236.42227208947705 L 384.0703125 223.30823499623102 L 385.33984375 203.2978830282747 L 387.5859375 163.87221710491104 L 389.44140625 132.637721646145 L 390.61328125 115.84785947070816 L 391.58984375 104.49546045760275 L 392.37109375 97.48970831065793 L 393.0546875 93.03760267680326 L 393.54296875 90.8715421691387 L 393.93359375 89.76551669320429 L 394.2265625 89.30680796537763 L 394.421875 89.17864883573498 L 394.6171875 89.19289191657128 L 394.8125 89.34951337807081 L 395.10546875 89.85076678506033 L 395.49609375 91.01299186694268 L 395.984375 93.2479277557116 L 396.5703125 97.04500093976526 L 397.25390625 102.93840745119928 L 398.03515625 111.45321361665145 L 399.01171875 124.42629237833944 L 399.5 131.72985181311265" stroke-linecap="round" stroke-linejoin="round" stroke-miterlimit="10" stroke-width="2.5" stroke-opacity="0.9" stroke-dasharray=""/></g></g></g><g id="labels-00ef881b"/></g></svg>